<svg width="259" height="232" viewBox="0 0 259 232" fill="none" xmlns="http://www.w3.org/2000/svg">
<path d="M26.7811 35.4325C29.4286 35.9415 32.7536 35.5917 35.4751 35.5742C35.5318 38.2892 34.9939 42.0947 35.6864 44.667C38.7001 44.675 41.7339 44.6057 44.7404 44.834C43.8399 48.183 44.4026 56.1377 44.4061 59.9267L44.4559 89.1967C47.9579 89.6082 51.6479 89.391 55.1774 89.3853L73.5036 89.3582L134.559 89.3557L188.309 89.3615L204.627 89.3947C207.649 89.3997 210.844 89.6107 213.837 89.2475L213.899 89.065C215.887 89.222 221.002 89.591 222.674 88.843L222.832 88.1097L222.959 88.1052L223.129 88.9075C224.712 89.484 229.992 89.5055 231.532 88.9745C231.767 88.8938 231.797 88.8515 231.967 88.7177C233.099 89.6555 239.062 88.9795 240.944 89.2307C243.557 89.7185 246.829 89.4415 249.484 89.317C249.614 91.9465 249.114 95.4485 249.939 97.9173C252.577 98.4185 255.652 98.2575 258.342 98.202C258.774 107.026 258.254 115.908 258.387 124.743C255.664 124.478 252.642 124.425 249.934 124.865C249.362 127.515 249.552 130.69 249.447 133.405C247.092 133.345 243.169 133.158 240.964 133.753C240.499 136.9 240.707 140.26 240.709 143.44L240.732 158.483C240.749 176.955 240.954 195.468 240.724 213.938C237.797 213.958 234.867 214.025 231.942 214.133L231.737 214.273L231.537 222.868C229.294 222.82 225.504 222.228 223.534 223.358C222.109 224.993 222.732 229.41 222.749 231.61C215.354 231.81 207.924 231.668 200.524 231.66L161.729 231.648L35.7656 231.645C35.7651 229.763 36.4313 224.973 35.1763 223.608C33.9321 222.253 28.8858 222.733 26.9556 222.693C27.0006 220.035 27.2216 217.013 26.7639 214.398L26.4776 214.12C23.9066 213.53 20.5728 213.88 17.9451 214.08L17.9191 158.405L17.9709 143.33C17.9836 140.285 18.1904 137.048 17.7761 134.035L17.6494 133.788C15.0371 133.29 11.8166 133.59 9.11911 133.563C9.32186 130.763 9.00761 127.848 8.87111 125.045L8.72235 124.923C5.9111 124.405 2.9071 124.578 0.060104 124.668C0.446354 119.633 0.0563543 114.376 0.00410429 109.314C-0.0341457 105.609 0.209602 101.916 0.129852 98.2103C3.0071 98.2033 5.88935 98.239 8.7616 98.0547L8.80435 97.8882C9.19385 95.1012 9.16236 92.183 9.00061 89.3783C11.7254 89.3995 14.9576 89.7562 17.5896 89.1217L17.6956 88.9765C18.3391 82.6553 17.9201 75.9723 17.9044 69.6165C17.8549 58.3178 17.8741 47.0187 17.9626 35.7202C20.7891 35.9345 23.7199 36.016 26.5346 35.6512L26.7511 35.5892L26.7811 35.4325Z" fill="#9E611D"/>
<path d="M26.7811 35.4325C29.4286 35.9415 32.7536 35.5917 35.4751 35.5742C35.5318 38.2892 34.9939 42.0947 35.6864 44.667C38.7001 44.675 41.7339 44.6057 44.7404 44.834C43.8399 48.183 44.4026 56.1377 44.4061 59.9267L44.4559 89.1967C47.9579 89.6082 51.6479 89.391 55.1774 89.3853L73.5036 89.3582L134.559 89.3557L188.309 89.3615L204.627 89.3947C207.649 89.3997 210.844 89.6107 213.837 89.2475L213.899 89.065C215.887 89.222 221.002 89.591 222.674 88.843L222.832 88.1097L222.959 88.1052L223.129 88.9075C224.712 89.484 229.992 89.5055 231.532 88.9745C231.767 88.8938 231.797 88.8515 231.967 88.7177C233.099 89.6555 239.062 88.9795 240.944 89.2307C243.557 89.7185 246.829 89.4415 249.484 89.317C249.614 91.9465 249.114 95.4485 249.939 97.9173C252.577 98.4185 255.652 98.2575 258.342 98.202C258.774 107.026 258.254 115.908 258.387 124.743C255.664 124.478 252.642 124.425 249.934 124.865C249.362 127.515 249.552 130.69 249.447 133.405C247.092 133.345 243.169 133.158 240.964 133.753C240.742 130.913 240.932 127.9 240.904 125.04C236.559 124.735 232.129 124.863 227.772 124.86H206.604L141.614 124.863L60.5278 124.855L33.5421 124.865C28.2868 124.873 22.9906 124.753 17.7419 125.003C17.7464 127.813 18.0344 131.025 17.6494 133.788C15.0371 133.29 11.8166 133.59 9.11911 133.563C9.32186 130.763 9.00761 127.848 8.87111 125.045L8.72235 124.923C5.9111 124.405 2.9071 124.578 0.060104 124.668C0.446354 119.633 0.0563543 114.376 0.00410429 109.314C-0.0341457 105.609 0.209602 101.916 0.129852 98.2103C3.0071 98.2033 5.88935 98.239 8.7616 98.0547L8.80435 97.8882C9.19385 95.1012 9.16236 92.183 9.00061 89.3783C11.7254 89.3995 14.9576 89.7562 17.5896 89.1217L17.6956 88.9765C18.3391 82.6553 17.9201 75.9723 17.9044 69.6165C17.8549 58.3178 17.8741 47.0187 17.9626 35.7202C20.7891 35.9345 23.7199 36.016 26.5346 35.6512L26.7511 35.5892L26.7811 35.4325Z" fill="#D39238"/>
<path d="M249.939 97.9172C252.577 98.4185 255.652 98.2575 258.342 98.202C258.774 107.026 258.254 115.908 258.387 124.743C255.664 124.478 252.642 124.425 249.934 124.865C249.362 127.515 249.552 130.69 249.447 133.405C247.092 133.345 243.169 133.158 240.964 133.753C240.742 130.913 240.932 127.9 240.904 125.04C236.559 124.735 232.129 124.863 227.772 124.86H206.604L141.614 124.863L60.5278 124.855L33.5421 124.865C28.2868 124.873 22.9906 124.753 17.7419 125.003C17.7464 127.813 18.0344 131.025 17.6494 133.788C15.0371 133.29 11.8166 133.59 9.11911 133.563C9.32186 130.763 9.00761 127.848 8.87111 125.045L8.72235 124.923C5.9111 124.405 2.9071 124.578 0.060104 124.668C0.446354 119.633 0.0563543 114.376 0.00410429 109.314C-0.0341457 105.609 0.209602 101.916 0.129852 98.2102C3.0071 98.2032 5.88935 98.239 8.7616 98.0547L8.93111 98.8507C9.09611 101.664 9.03385 104.494 9.02985 107.312C13.0756 106.944 17.2604 107.13 21.3256 107.08C28.3331 106.995 35.3236 106.863 42.3336 106.872L97.1156 106.878L192.264 106.877C211.414 106.781 230.564 106.843 249.712 107.062C249.724 105.862 249.679 104.655 249.929 103.477C250.029 101.641 249.942 99.7585 249.939 97.9172Z" fill="#B2751A"/>
<path d="M0.129852 98.2103C3.0071 98.2033 5.88935 98.239 8.7616 98.0547L8.93111 98.8508C8.51886 101.781 8.7366 104.95 8.7496 107.91C8.7741 113.577 8.89185 119.258 8.72235 124.923C5.9111 124.405 2.9071 124.578 0.060104 124.668C0.446354 119.633 0.0563543 114.376 0.00410429 109.314C-0.0341457 105.609 0.209602 101.916 0.129852 98.2103Z" fill="black"/>
<path d="M249.939 97.9172C252.577 98.4185 255.652 98.2575 258.342 98.202C258.774 107.026 258.254 115.908 258.387 124.743C255.664 124.478 252.642 124.425 249.934 124.865C250.184 117.778 249.969 110.571 249.929 103.477C250.029 101.641 249.942 99.7585 249.939 97.9172Z" fill="black"/>
<path d="M8.87115 125.045C11.8227 124.998 14.7919 124.878 17.7419 125.003C17.7464 127.813 18.0344 131.025 17.6494 133.788C15.0371 133.29 11.8167 133.59 9.11916 133.563C9.32191 130.763 9.00765 127.848 8.87115 125.045Z" fill="black"/>
<path d="M249.934 124.865C249.362 127.515 249.552 130.69 249.447 133.405C247.092 133.345 243.169 133.158 240.964 133.753C240.742 130.913 240.932 127.9 240.904 125.04C243.877 125.08 246.984 125.24 249.934 124.865Z" fill="black"/>
<path d="M44.4559 89.1967C47.9579 89.6082 51.6479 89.391 55.1774 89.3853L73.5036 89.3582L134.559 89.3557L188.309 89.3615L204.627 89.3947C207.649 89.3997 210.844 89.6107 213.837 89.2475C214.287 91.9467 213.969 95.1183 213.957 97.86L93.5924 97.8438H60.0471C55.8796 97.84 48.4886 97.376 44.6676 97.9518C44.4281 95.0665 44.4989 92.0927 44.4559 89.1967Z" fill="black"/>
<path d="M26.7811 35.4325C29.4286 35.9415 32.7536 35.5917 35.4751 35.5742C35.5319 38.2892 34.9939 42.0947 35.6864 44.667C38.7001 44.675 41.7339 44.6057 44.7404 44.834C43.8399 48.183 44.4026 56.1377 44.4061 59.9267L44.4559 89.1967C41.6041 88.967 38.6359 89.1005 35.7694 89.0855L35.7874 80.145C32.7736 80.0383 29.7559 80.0025 26.7639 80.4473L26.5104 80.098C26.5009 83.091 26.4501 86.0898 26.4861 89.082C23.7681 89.1073 20.3359 89.5463 17.6956 88.9765C18.3391 82.6553 17.9201 75.9723 17.9044 69.6165C17.8549 58.3178 17.8741 47.0187 17.9626 35.7202C20.7891 35.9345 23.7199 36.016 26.5346 35.6512L26.7511 35.5892L26.7811 35.4325Z" fill="#9E611D"/>
<path d="M26.5346 35.6512L26.5104 80.098C26.5009 83.091 26.4501 86.0898 26.4861 89.082C23.7681 89.1073 20.3359 89.5463 17.6956 88.9765C18.3391 82.6553 17.9201 75.9723 17.9044 69.6165C17.8549 58.3178 17.8741 47.0187 17.9626 35.7202C20.7891 35.9345 23.7199 36.016 26.5346 35.6512Z" fill="black"/>
<path d="M35.6863 44.667C38.7001 44.675 41.7338 44.6057 44.7403 44.834C43.8398 48.183 44.4026 56.1377 44.4061 59.9267L44.4558 89.1967C41.6041 88.967 38.6358 89.1005 35.7693 89.0855L35.7873 80.145L35.7766 53.517C35.7201 50.5672 35.6898 47.6172 35.6863 44.667Z" fill="black"/>
<path d="M26.7811 35.4325C29.4286 35.9415 32.7536 35.5917 35.4751 35.5742C35.5318 38.2892 34.9939 42.0947 35.6864 44.667C35.6899 47.6172 35.7201 50.5672 35.7766 53.517C32.8076 53.3292 29.7964 53.5675 26.8126 53.4532C26.7081 47.5 26.9068 41.5417 26.7511 35.5892L26.7811 35.4325Z" fill="#B2751A"/>
<path d="M26.5104 80.098L26.7639 80.4473C29.7559 80.0025 32.7736 80.0383 35.7874 80.145L35.7694 89.0855C38.6359 89.1005 41.6041 88.967 44.4559 89.1968C44.4989 92.0928 44.4281 95.0665 44.6676 97.9518C40.2609 98.4633 35.4409 98.1095 30.9946 98.1148C24.1839 98.123 17.1894 98.419 10.4014 97.9035L8.80438 97.8883C9.19388 95.1013 9.16239 92.183 9.00064 89.3783C11.7254 89.3995 14.9576 89.7563 17.5896 89.1218L17.6956 88.9765C20.3359 89.5463 23.7681 89.1073 26.4861 89.082C26.4501 86.0898 26.5009 83.091 26.5104 80.098Z" fill="#895A11"/>
<path d="M26.7639 80.4473C29.7559 80.0025 32.7736 80.0383 35.7874 80.145L35.7694 89.0855C32.7689 89.1353 29.7681 89.1425 26.7676 89.1073C26.6139 86.2475 26.7501 83.3145 26.7639 80.4473Z" fill="#B2751A"/>
<path d="M17.5896 89.1218C18.0221 91.8948 17.7201 95.0973 17.5986 97.8993C15.2021 97.8623 12.7959 97.7765 10.4014 97.9035L8.80438 97.8883C9.19388 95.1013 9.16239 92.183 9.00064 89.3783C11.7254 89.3995 14.9576 89.7563 17.5896 89.1218Z" fill="black"/>
<path d="M222.832 88.1097L222.959 88.1052L223.129 88.9075C224.712 89.484 229.992 89.5055 231.532 88.9745C231.767 88.8937 231.797 88.8515 231.967 88.7177C233.099 89.6555 239.062 88.9795 240.944 89.2307C243.557 89.7185 246.829 89.4415 249.484 89.317C249.614 91.9465 249.114 95.4485 249.939 97.9172C247.094 97.9037 244.249 97.9082 241.404 97.9307C237.732 98.4357 233.714 98.1325 229.994 98.1335C222.232 98.1455 214.472 98.1027 206.709 98.0055L145.692 98.0325L75.0421 98.0342C68.8111 98.0322 62.5761 97.9502 56.3461 98.0055C52.5286 98.0392 48.4571 98.419 44.6676 97.9517C48.4886 97.376 55.8796 97.84 60.0471 97.8437H93.5923L213.957 97.86C213.969 95.1182 214.287 91.9467 213.837 89.2475L213.899 89.065C215.887 89.222 221.002 89.591 222.674 88.843L222.832 88.1097Z" fill="#895A11"/>
<path d="M240.944 89.2307C243.557 89.7185 246.829 89.4415 249.484 89.317C249.614 91.9465 249.114 95.4485 249.939 97.9173C247.094 97.9038 244.249 97.9082 241.404 97.9307L241.104 97.7878C240.487 96.524 240.934 90.9497 240.944 89.2307Z" fill="black"/>
<path d="M17.7419 125.003C22.9906 124.753 28.2868 124.873 33.5421 124.865L60.5278 124.855L141.614 124.863L206.604 124.86H227.772C232.129 124.863 236.559 124.735 240.904 125.04C240.932 127.9 240.742 130.913 240.964 133.753C239.619 133.84 232.474 133.558 231.919 134.308C231.867 134.38 231.849 134.473 231.814 134.555C231.594 134.098 231.702 134.105 231.209 133.92C230.392 133.613 223.792 133.633 223.032 134.075C222.984 136.94 222.967 139.805 222.984 142.67C220.042 142.523 217.064 142.618 214.117 142.633L213.977 142.678C211.092 142.385 208.049 142.563 205.149 142.625C202.164 142.558 199.174 142.73 196.184 142.693C193.307 142.473 190.332 142.583 187.442 142.623L187.269 142.663C184.369 142.583 181.334 142.725 178.452 142.42C178.429 144.068 178.459 145.74 178.259 147.375C178.267 148.558 178.222 149.768 178.319 150.945L178.102 151.478C175.697 152.108 172.004 151.61 169.452 151.543L169.422 142.565L160.677 142.623L160.484 142.655C158.739 142.625 153.089 142.16 151.832 142.833C151.784 143.378 151.732 143.923 151.704 144.468L151.534 144.4C151.514 143.763 151.589 143.46 151.234 142.903C148.849 141.973 145.244 142.693 142.744 142.85L142.634 142.663C139.752 142.505 136.787 142.653 133.897 142.665L133.797 142.605C130.847 142.65 127.897 142.658 124.944 142.625C121.947 142.558 118.952 142.708 115.956 142.823L115.888 142.658C112.951 142.55 109.975 142.658 107.034 142.673C104.005 142.393 100.825 142.603 97.7901 142.755C95.0064 142.408 91.9904 142.63 89.1849 142.65L89.0606 142.603C86.2099 142.433 83.2649 142.585 80.4064 142.613L80.2586 142.66C77.3869 142.598 74.0006 143.195 71.2191 142.665C68.3571 142.438 65.3291 142.628 62.4476 142.598C59.5029 142.585 56.5579 142.595 53.6134 142.625L53.4711 142.685C51.7026 142.618 45.7651 142.145 44.4559 142.568C41.5664 142.745 38.6039 142.648 35.7054 142.668L35.5536 142.608C35.5184 139.608 35.6181 136.615 35.7136 133.618C32.7019 133.555 29.6024 133.473 26.6124 133.88C24.4456 133.888 19.6284 133.485 17.7761 134.035L17.6494 133.788C18.0344 131.025 17.7464 127.813 17.7419 125.003Z" fill="#895A11"/>
<path d="M169.414 133.575C172.024 133.655 186.124 133.078 187.414 133.8C187.379 136.743 187.389 139.683 187.442 142.623L187.269 142.663C184.369 142.583 181.334 142.725 178.452 142.42C178.429 144.068 178.459 145.74 178.259 147.375C178.267 148.558 178.222 149.768 178.319 150.945L178.102 151.478C175.697 152.108 172.004 151.61 169.452 151.543L169.422 142.565C169.377 141.118 169.407 139.668 169.422 138.218C169.569 136.678 169.464 135.118 169.414 133.575Z" fill="#9E611D"/>
<path d="M169.422 142.565C172.349 142.67 175.274 142.658 178.204 142.648C178.217 144.218 178.179 145.808 178.259 147.375C178.267 148.558 178.222 149.768 178.319 150.945L178.102 151.478C175.697 152.108 172.004 151.61 169.452 151.543L169.422 142.565Z" fill="#6B4416"/>
<path d="M35.7136 133.618C37.4276 133.498 52.8716 133.533 53.4356 133.818C53.4529 136.725 53.3224 139.738 53.6134 142.625L53.4711 142.685C51.7026 142.618 45.7651 142.145 44.4559 142.568C41.5664 142.745 38.6039 142.648 35.7054 142.668L35.5536 142.608C35.5184 139.608 35.6181 136.615 35.7136 133.618Z" fill="#9E611D"/>
<path d="M116.085 134.55L116.235 134.243C117.024 133.76 131.519 133.71 133.752 133.633L133.797 142.605C130.847 142.65 127.897 142.658 124.944 142.625C121.947 142.558 118.952 142.708 115.956 142.823L115.888 142.658C116.132 140 115.97 137.225 116.085 134.55Z" fill="#9E611D"/>
<path d="M196.187 136.165C196.189 135.325 196.102 134.528 196.544 133.78C200.537 133.903 204.529 133.958 208.524 133.94C210.282 133.933 212.279 133.648 214.007 133.843C214.009 136.755 213.899 139.73 214.117 142.633L213.977 142.678C211.092 142.385 208.049 142.563 205.149 142.625C202.164 142.558 199.174 142.73 196.184 142.693L196.187 136.165Z" fill="#9E611D"/>
<path d="M62.3779 133.84C66.2841 134.658 72.2159 133.975 76.3021 133.91C77.5636 133.89 78.9166 133.753 80.1564 134.013L80.3736 134.57C80.4184 137.245 80.2274 139.948 80.4064 142.613L80.2586 142.66C77.3869 142.598 74.0006 143.195 71.2191 142.665C68.3571 142.438 65.3291 142.628 62.4476 142.598L62.4186 142.183C62.6669 139.445 62.5376 136.58 62.3779 133.84Z" fill="#9E611D"/>
<path d="M143.017 133.72C146.089 134.178 149.414 134.135 152.519 134.065C154.512 134.02 158.837 133.37 160.489 133.853C160.577 136.773 160.697 139.698 160.677 142.623L160.484 142.655C158.739 142.625 153.089 142.16 151.832 142.833C151.784 143.378 151.732 143.923 151.704 144.468L151.534 144.4C151.514 143.763 151.589 143.46 151.234 142.903C148.849 141.973 145.244 142.693 142.744 142.85L142.634 142.663L142.762 137.473C142.999 136.24 142.979 134.97 143.017 133.72Z" fill="#9E611D"/>
<path d="M89.0856 134.065C93.7531 134.163 102.748 134.408 106.998 133.655C107.042 136.56 107.367 139.803 107.034 142.673C104.005 142.393 100.825 142.603 97.7901 142.755C95.0064 142.408 91.9904 142.63 89.1849 142.65L89.0606 142.603L89.1768 141.928C89.3956 139.363 89.3216 136.625 89.0856 134.065Z" fill="#9E611D"/>
<path d="M133.752 133.633L142.757 133.618L142.762 137.473L142.634 142.663C139.752 142.505 136.787 142.653 133.897 142.665L133.797 142.605L133.752 133.633Z" fill="#6B4416"/>
<path d="M106.998 133.655C109.69 133.583 113.262 133.108 115.834 133.793C115.961 134.068 116.054 134.245 116.085 134.55C115.97 137.225 116.132 140 115.888 142.658C112.951 142.55 109.975 142.658 107.034 142.673C107.367 139.803 107.042 136.56 106.998 133.655Z" fill="#6B4416"/>
<path d="M214.007 133.843C215.622 133.808 221.979 133.15 222.954 133.885L223.032 134.075C222.984 136.94 222.967 139.805 222.984 142.67C220.042 142.523 217.064 142.618 214.117 142.633C213.899 139.73 214.009 136.755 214.007 133.843Z" fill="#6B4416"/>
<path d="M187.414 133.8C189.017 133.155 193.857 133.528 195.704 133.725C196.122 134.358 196.107 135.41 196.187 136.165L196.184 142.693C193.307 142.473 190.332 142.583 187.442 142.623C187.389 139.683 187.379 136.743 187.414 133.8Z" fill="#6B4416"/>
<path d="M160.489 133.853C163.344 133.388 166.317 133.725 169.194 133.625C169.262 135.15 169.279 136.698 169.422 138.218C169.407 139.668 169.377 141.118 169.422 142.565L160.677 142.623C160.697 139.698 160.577 136.773 160.489 133.853Z" fill="#6B4416"/>
<path d="M53.4356 133.818C56.2664 134.128 59.3304 133.88 62.1876 133.84C62.2564 136.583 62.1391 139.468 62.4186 142.183L62.4476 142.598C59.5029 142.585 56.5579 142.595 53.6134 142.625C53.3224 139.738 53.4529 136.725 53.4356 133.818Z" fill="#6B4416"/>
<path d="M80.3736 134.57L80.6538 133.99C83.2151 133.483 86.3033 133.823 88.9398 133.86C88.9836 136.46 88.7691 139.385 89.1768 141.928L89.0606 142.603C86.2099 142.433 83.2649 142.585 80.4064 142.613C80.2274 139.948 80.4183 137.245 80.3736 134.57Z" fill="#6B4416"/>
<path d="M26.6124 133.88C29.6024 133.473 32.7019 133.555 35.7136 133.618C35.6181 136.615 35.5184 139.608 35.5536 142.608C32.6166 142.51 29.6804 142.658 26.7431 142.655C26.6976 145.758 26.5739 148.89 26.6719 151.99L26.7504 160.71C29.7181 160.553 32.6929 160.565 35.6639 160.545C35.9744 163.423 35.8084 166.485 35.7649 169.383C38.6111 169.403 41.4806 169.498 44.3249 169.428L44.4511 169.515C44.5044 172.393 44.3116 175.388 44.5591 178.245L44.6794 178.328L53.1324 178.395L53.4169 178.453C53.4854 181.375 53.6224 184.388 53.4411 187.303C56.2961 187.395 59.1499 187.273 62.0051 187.323C62.3354 187.915 62.3701 188.25 62.4014 188.908C62.4179 191.33 62.3824 193.77 62.4549 196.193C62.8709 196.19 63.3484 196.138 63.7499 196.243L65.6491 196.323C67.5186 196.358 69.3884 196.373 71.2581 196.365C71.2501 197.46 71.1994 198.575 71.2641 199.668C71.2556 201.485 71.1964 203.318 71.2779 205.13C74.2571 205.155 77.2431 205.22 80.2216 205.133L80.2269 213.815C82.6604 213.82 86.0199 213.388 88.3166 214.078L88.5801 214.103C89.7149 215.57 88.8544 219.255 89.1876 221.173L89.1929 223.115L80.3226 223.138L71.0741 223.135C68.1636 223.038 65.2216 223.128 62.3081 223.133C59.3589 223.178 56.4044 223.145 53.4546 223.148C50.5614 223.093 47.6584 223.14 44.7641 223.138C44.7616 220.1 44.7179 217.063 44.6324 214.025C41.8589 214.145 38.0734 213.655 35.4361 214.32L35.2784 214.223C32.4781 214.045 29.6436 214.14 26.8396 214.188L26.7639 214.398L26.4776 214.12C23.9066 213.53 20.5729 213.88 17.9451 214.08L17.9191 158.405L17.9709 143.33C17.9836 140.285 18.1904 137.048 17.7761 134.035C19.6284 133.485 24.4456 133.888 26.6124 133.88Z" fill="#9E611D"/>
<path d="M26.6124 133.88C29.6024 133.473 32.7019 133.555 35.7136 133.618C35.6181 136.615 35.5184 139.608 35.5536 142.608C32.6166 142.51 29.6804 142.658 26.7431 142.655C26.6976 145.758 26.5739 148.89 26.6719 151.99L26.7504 160.71C29.7181 160.553 32.6929 160.565 35.6639 160.545C35.3029 163.43 35.4809 166.445 35.6026 169.345L26.7194 169.375C26.6846 172.345 26.6126 175.318 26.6571 178.288L26.7246 187.385L31.4321 187.328C32.7889 187.34 34.1494 187.373 35.5059 187.358C35.5039 190.335 35.4541 193.323 35.5079 196.298C32.5889 196.293 29.6699 196.305 26.7511 196.338C26.7119 199.198 26.5234 202.153 26.6889 205.005C26.6636 207.96 26.3446 211.275 26.8396 214.188L26.7639 214.398L26.4776 214.12C23.9066 213.53 20.5729 213.88 17.9451 214.08L17.9191 158.405L17.9709 143.33C17.9836 140.285 18.1904 137.048 17.7761 134.035C19.6284 133.485 24.4456 133.888 26.6124 133.88Z" fill="black"/>
<path d="M26.6123 133.88C29.6023 133.473 32.7019 133.555 35.7136 133.618C35.6181 136.615 35.5184 139.608 35.5536 142.608C32.6166 142.51 29.6803 142.658 26.7431 142.655C26.6976 145.758 26.5739 148.89 26.6719 151.99L26.7503 160.71C29.7181 160.553 32.6928 160.565 35.6638 160.545C35.3028 163.43 35.4808 166.445 35.6026 169.345L26.7194 169.375C26.6846 172.345 26.6126 175.318 26.6571 178.288L26.7246 187.385L31.4321 187.328C32.7888 187.34 34.1494 187.373 35.5059 187.358C35.5039 190.335 35.4541 193.323 35.5079 196.298C32.5889 196.293 29.6698 196.305 26.7511 196.338C26.7118 199.198 26.5234 202.153 26.6889 205.005C26.6636 207.96 26.3446 211.275 26.8396 214.188L26.7639 214.398L26.4776 214.12L26.4966 161.793C26.5103 152.548 26.0146 143.098 26.6123 133.88Z" fill="#6B4416"/>
<path d="M44.6624 205.078C47.4827 205.105 50.5241 204.895 53.3156 205.178L53.4484 205.268C53.4202 208.18 53.3492 211.103 53.4389 214.015L62.2759 214.153C62.3167 215.518 62.2462 216.888 62.2922 218.25C62.3197 219.85 62.4607 221.545 62.3082 223.133C59.3589 223.178 56.4044 223.145 53.4547 223.148C50.5614 223.093 47.6584 223.14 44.7642 223.138C44.7617 220.1 44.7179 217.063 44.6324 214.025C44.2567 211.7 44.0719 207.365 44.6624 205.078Z" fill="#6B4416"/>
<path d="M44.6324 214.025C47.5496 213.94 50.4814 214.045 53.3989 214.115C53.4094 217.11 53.2999 220.16 53.4546 223.148C50.5614 223.093 47.6584 223.14 44.7641 223.138C44.7616 220.1 44.7179 217.063 44.6324 214.025Z" fill="#9E611D"/>
<path d="M53.1324 178.395L53.4169 178.453C53.4854 181.375 53.6224 184.388 53.4411 187.303C50.4836 187.178 47.4581 187.21 44.4996 187.323C44.4631 184.54 44.0856 181.018 44.6794 178.328L53.1324 178.395Z" fill="#6B4416"/>
<path d="M53.4411 187.303C56.2961 187.395 59.1499 187.273 62.0051 187.323C62.3354 187.915 62.3701 188.25 62.4014 188.908C62.4179 191.33 62.3824 193.77 62.4549 196.193C59.6861 196.608 56.3729 196.223 53.5576 196.145C53.4889 193.203 53.3516 190.245 53.4411 187.303Z" fill="#6B4416"/>
<path d="M44.5116 198.87C44.5811 198.118 44.5429 197.063 45.0259 196.468C47.6371 195.808 50.8061 196.155 53.5024 196.208C53.4911 198.128 53.8716 203.728 53.3156 205.178C50.5241 204.895 47.4826 205.105 44.6624 205.078L44.5036 205.018C44.4076 202.978 44.4946 200.91 44.5116 198.87Z" fill="#B2751A"/>
<path d="M26.6889 205.005C29.5944 205.173 32.5164 205.085 35.4254 205.06C35.4549 207.96 35.8146 211.378 35.2784 214.223C32.4781 214.045 29.6436 214.14 26.8396 214.188C26.3446 211.275 26.6636 207.96 26.6889 205.005Z" fill="#B2751A"/>
<path d="M26.6571 178.288C29.5904 178.24 32.5341 178.135 35.4664 178.238C35.4536 181.19 35.4646 184.145 35.4994 187.1C34.1609 187.143 32.7506 187.095 31.4321 187.328L26.7246 187.385L26.6571 178.288Z" fill="#B2751A"/>
<path d="M80.3044 214.088L88.3166 214.078L88.5801 214.103C89.7149 215.57 88.8544 219.255 89.1876 221.173L89.1929 223.115L80.3226 223.138C80.1946 220.143 80.3309 217.093 80.3044 214.088Z" fill="#6B4416"/>
<path d="M71.2779 205.13C74.2571 205.155 77.2431 205.22 80.2216 205.133L80.2269 213.815C77.5484 214.433 74.1821 214.08 71.4256 214.083C71.4141 211.095 71.4139 208.113 71.2779 205.13Z" fill="#6B4416"/>
<path d="M53.4484 205.268C56.2779 204.838 59.4229 205.07 62.2941 205.038C62.2316 208.075 62.2254 211.115 62.2759 214.153L53.4389 214.015C53.3491 211.103 53.4201 208.18 53.4484 205.268Z" fill="#B2751A"/>
<path d="M62.5581 214.18L71.2144 214.08C71.2274 216.938 71.5974 220.35 71.0741 223.135C68.1636 223.038 65.2216 223.128 62.3081 223.133C62.4606 221.545 62.3196 219.85 62.2921 218.25C62.5336 216.89 62.5431 215.558 62.5581 214.18Z" fill="#B2751A"/>
<path d="M63.7499 196.243L65.6491 196.323C67.5186 196.358 69.3884 196.373 71.2581 196.365C71.2501 197.46 71.1994 198.575 71.2641 199.668C71.2556 201.485 71.1964 203.318 71.2779 205.13C68.2874 205.145 65.2969 205.135 62.3066 205.103C62.5379 202.703 61.6461 198.523 62.7766 196.453L63.7499 196.243Z" fill="#6B4416"/>
<path d="M35.7229 196.338C38.4936 196.325 41.4506 196.095 44.1936 196.475C44.5904 197.095 44.4906 198.135 44.5116 198.87C44.4946 200.91 44.4076 202.978 44.5036 205.018C42.5819 205.393 37.5084 205.56 35.7619 204.815L35.6064 204.158C35.4866 201.535 35.5979 198.955 35.7229 196.338Z" fill="#6B4416"/>
<path d="M35.7649 169.383C38.6111 169.403 41.4806 169.498 44.3249 169.428L44.4511 169.515C44.5044 172.393 44.3116 175.388 44.5591 178.245C41.6034 178.3 38.6224 178.175 35.6651 178.133C35.6379 175.22 35.5654 172.288 35.7649 169.383Z" fill="#6B4416"/>
<path d="M40.2056 187.23C41.6539 187.218 43.1026 187.228 44.5506 187.263C44.5189 190.21 44.5169 193.16 44.5441 196.108L40.7839 196.115C39.1039 196.17 37.4152 196.11 35.7344 196.083C35.7232 193.133 35.7357 190.185 35.7717 187.235C37.2494 187.265 38.7276 187.263 40.2056 187.23Z" fill="#B2751A"/>
<path d="M223.032 134.075C223.792 133.633 230.392 133.613 231.209 133.92C231.702 134.105 231.594 134.098 231.814 134.555C231.849 134.473 231.867 134.38 231.919 134.308C232.474 133.558 239.619 133.84 240.964 133.753C240.499 136.9 240.707 140.26 240.709 143.44L240.732 158.483C240.749 176.955 240.954 195.468 240.724 213.938C237.797 213.958 234.867 214.025 231.942 214.133L231.737 214.273C229.077 213.785 225.892 214.13 223.179 214.138L223.027 214.075C223.407 211.198 223.064 208.013 223.007 205.093C222.967 202.173 222.959 199.253 222.984 196.333C222.999 193.823 222.999 191.313 222.987 188.805L222.939 187.375L216.857 187.313C215.854 187.125 214.917 187.305 214.074 186.688L214.017 185.45C213.917 183.113 213.959 180.73 214.004 178.393L205.214 178.285C205.124 175.41 205.164 172.52 205.154 169.64L204.909 169.503C205.242 166.598 204.989 163.413 205.032 160.475C205.022 157.54 205.072 154.563 205.284 151.635C205.167 149.175 205.307 146.703 205.184 144.235L205.149 142.625C208.049 142.563 211.092 142.385 213.977 142.678L214.117 142.633C217.064 142.618 220.042 142.523 222.984 142.67C222.967 139.805 222.984 136.94 223.032 134.075Z" fill="#9E611D"/>
<path d="M231.814 134.555C231.849 134.473 231.867 134.38 231.919 134.308C232.474 133.558 239.619 133.84 240.964 133.753C240.499 136.9 240.707 140.26 240.709 143.44L240.732 158.483C240.749 176.955 240.954 195.468 240.724 213.938C237.797 213.958 234.867 214.025 231.942 214.133L231.737 214.273C229.077 213.785 225.892 214.13 223.179 214.138L223.027 214.075C223.407 211.198 223.064 208.013 223.007 205.093C222.967 202.173 222.959 199.253 222.984 196.333C225.959 196.453 228.987 196.4 231.962 196.3L231.917 192.508C232.047 187.88 231.954 183.223 231.967 178.593L231.947 169.215L231.977 151.688C232.019 147.385 232.007 143.083 231.934 138.778C231.962 137.353 231.942 135.978 231.814 134.555Z" fill="black"/>
<path d="M223.007 205.093L231.822 205.13C231.839 206.093 231.774 207.133 231.934 208.078L231.942 214.133L231.737 214.273C229.077 213.785 225.892 214.13 223.179 214.138L223.027 214.075C223.407 211.198 223.064 208.013 223.007 205.093Z" fill="#9E611D"/>
<path d="M222.984 196.333C225.959 196.453 228.987 196.4 231.962 196.3C231.982 200.175 232.237 204.223 231.934 208.078C231.774 207.133 231.839 206.093 231.822 205.13L223.007 205.093C222.967 202.173 222.959 199.253 222.984 196.333Z" fill="#6B4416"/>
<path d="M223.032 134.075C223.792 133.633 230.392 133.613 231.209 133.92C231.702 134.105 231.594 134.098 231.814 134.555C231.942 135.978 231.962 137.353 231.934 138.778C232.007 143.083 232.019 147.385 231.977 151.688C229.072 151.373 225.914 151.595 222.977 151.558C222.939 148.595 222.942 145.633 222.984 142.67C222.967 139.805 222.984 136.94 223.032 134.075Z" fill="#6B4416"/>
<path d="M223.032 134.075C223.792 133.633 230.392 133.613 231.209 133.92C231.702 134.105 231.594 134.098 231.814 134.555C231.942 135.978 231.962 137.353 231.934 138.778C231.844 140.08 231.779 141.358 231.804 142.663C229.067 142.665 225.632 143.113 222.984 142.67C222.967 139.805 222.984 136.94 223.032 134.075Z" fill="#9E611D"/>
<path d="M222.977 151.558C225.914 151.595 229.072 151.373 231.977 151.688L231.947 169.215L231.717 169.21C229.304 169.71 225.712 169.558 223.269 169.318L223.097 168.933C222.829 166.293 222.982 163.453 222.944 160.785L222.812 160.658C223.517 158.07 223.007 154.303 222.977 151.558Z" fill="#9E611D"/>
<path d="M222.944 160.785C225.727 160.205 228.837 160.425 231.662 160.643C231.669 163.475 231.549 166.385 231.717 169.21C229.304 169.71 225.712 169.558 223.269 169.318L223.097 168.933C222.829 166.293 222.982 163.453 222.944 160.785Z" fill="#B2751A"/>
<path d="M231.717 169.21L231.947 169.215L231.967 178.593C230.067 177.863 225.224 178.365 223.044 178.405C222.832 175.498 222.752 172.193 223.269 169.318C225.712 169.558 229.304 169.71 231.717 169.21Z" fill="#6B4416"/>
<path d="M222.987 188.805C223.084 188.413 223.109 187.795 223.464 187.573C225.164 186.513 229.564 187.335 231.627 187.413C231.629 189.088 231.512 190.878 231.917 192.508L231.962 196.3C228.987 196.4 225.959 196.453 222.984 196.333C222.999 193.823 222.999 191.313 222.987 188.805Z" fill="#B2751A"/>
<path d="M214.099 160.565H219.612L222.812 160.658L222.944 160.785C222.982 163.453 222.829 166.293 223.097 168.933L222.719 169.313C219.882 169.558 217.009 169.52 214.169 169.368C214.022 166.453 214.109 163.488 214.099 160.565Z" fill="#6B4416"/>
<path d="M214.167 178.345C217.022 178.348 220.172 178.118 222.987 178.54C222.989 181.455 223.154 184.47 222.939 187.375L216.857 187.313C215.854 187.125 214.917 187.305 214.074 186.688L214.017 185.45C214.352 183.103 214.222 180.71 214.167 178.345Z" fill="#B2751A"/>
<path d="M205.149 142.625C208.049 142.563 211.092 142.385 213.977 142.678L214.009 151.56C211.829 151.56 209.562 151.433 207.397 151.658L205.284 151.635C205.167 149.175 205.307 146.703 205.184 144.235L205.149 142.625Z" fill="#B2751A"/>
<path d="M205.154 169.64C208.124 169.328 211.044 169.62 214.012 169.538C214.032 172.32 214.419 175.673 214.004 178.393L205.214 178.285C205.124 175.41 205.164 172.52 205.154 169.64Z" fill="#B2751A"/>
<path d="M205.284 151.635L207.397 151.658C209.564 151.9 211.792 151.823 213.972 151.838C213.982 154.72 213.939 157.613 214.009 160.493C211.187 160.54 207.802 160.97 205.032 160.475C205.022 157.54 205.072 154.563 205.284 151.635Z" fill="#6B4416"/>
<path d="M214.212 151.8C217.087 151.733 220.119 151.205 222.977 151.558C223.007 154.303 223.517 158.07 222.812 160.658L219.612 160.565C217.874 160.195 216.024 160.325 214.254 160.345C214.079 157.505 214.179 154.645 214.212 151.8Z" fill="#B2751A"/>
<path d="M223.027 214.075L223.179 214.138C225.892 214.13 229.077 213.785 231.737 214.273L231.537 222.868C229.294 222.82 225.504 222.228 223.534 223.358C222.109 224.993 222.732 229.41 222.749 231.61C215.354 231.81 207.924 231.668 200.524 231.66L161.729 231.648L35.7656 231.645C35.7651 229.763 36.4313 224.973 35.1763 223.608C33.9321 222.253 28.8858 222.733 26.9556 222.693C27.0006 220.035 27.2216 217.013 26.7639 214.398L26.8396 214.188C29.6436 214.14 32.4781 214.045 35.2784 214.223L35.4361 214.32C38.0733 213.655 41.8589 214.145 44.6324 214.025C44.7179 217.063 44.7616 220.1 44.7641 223.138C47.6583 223.14 50.5614 223.093 53.4546 223.148C56.4044 223.145 59.3589 223.178 62.3081 223.133C65.2216 223.128 68.1636 223.038 71.0741 223.135L80.3226 223.138L89.1929 223.115C92.1001 223.13 95.0206 223.088 97.9263 223.165C100.965 223.118 104.004 223.105 107.043 223.13C109.949 223.18 112.856 223.19 115.762 223.163C118.807 223.15 121.872 223.063 124.912 223.155C127.929 223.15 130.947 223.163 133.964 223.188C136.874 223.213 139.784 223.198 142.697 223.148C145.559 223.133 148.442 223.058 151.304 223.135C154.379 223.148 157.467 223.103 160.539 223.18C163.504 223.158 166.484 223.078 169.447 223.143C172.389 223.148 175.347 223.09 178.287 223.168L187.277 223.148L196.209 223.193C199.144 223.118 202.079 223.105 205.014 223.155L214.019 223.148C214.079 220.138 213.994 217.068 214.264 214.07L223.027 214.075Z" fill="black"/>
<path d="M35.4361 214.32C38.0733 213.655 41.8589 214.145 44.6324 214.025C44.7179 217.063 44.7616 220.1 44.7641 223.138C41.6673 223.08 38.5574 223.145 35.4594 223.153L35.4361 214.32Z" fill="#B2751A"/>
<path d="M223.027 214.075L223.179 214.138C222.934 217.098 223.019 220.118 223.034 223.088L214.019 223.148C214.079 220.138 213.994 217.068 214.264 214.07L223.027 214.075Z" fill="#6B4416"/>
<path d="M178.452 142.42C181.334 142.725 184.369 142.583 187.269 142.663L187.442 142.623C190.332 142.583 193.307 142.473 196.184 142.693C199.174 142.73 202.164 142.558 205.149 142.625L205.184 144.235C205.307 146.703 205.167 149.175 205.284 151.635C205.072 154.563 205.022 157.54 205.032 160.475C204.989 163.413 205.242 166.598 204.909 169.503C202.052 169.518 199.124 169.688 196.284 169.348L196.197 168.988C194.862 170.065 189.282 169.443 187.394 169.418C184.694 169.323 181.279 168.863 178.669 169.458C178.464 169.75 178.334 169.945 178.214 170.285L178.244 169.353C175.307 169.538 172.379 169.578 169.447 169.318L169.469 160.67C167.867 160.565 166.272 160.573 164.669 160.575C166.254 160.315 167.859 160.36 169.459 160.355L169.452 151.543C172.004 151.61 175.697 152.108 178.102 151.478L178.319 150.945C178.222 149.768 178.267 148.558 178.259 147.375C178.459 145.74 178.429 144.068 178.452 142.42Z" fill="#9E611D"/>
<path d="M178.452 142.42C181.334 142.725 184.369 142.583 187.269 142.663C187.284 145.605 187.159 148.65 187.397 151.578C184.754 151.59 181.067 152.043 178.572 151.41L178.319 150.945C178.222 149.768 178.267 148.558 178.259 147.375C178.459 145.74 178.429 144.068 178.452 142.42Z" fill="#B2751A"/>
<path d="M169.469 160.67C172.397 160.35 175.332 160.415 178.274 160.475C178.294 162.818 178.799 167.29 178.244 169.353C175.307 169.538 172.379 169.578 169.447 169.318L169.469 160.67Z" fill="#B2751A"/>
<path d="M196.269 160.65C199.177 160.3 202.114 160.24 205.032 160.475C204.989 163.413 205.242 166.598 204.909 169.503C202.052 169.518 199.124 169.688 196.284 169.348L196.197 168.988L196.179 168.565C196.429 165.963 196.279 163.265 196.269 160.65Z" fill="#B2751A"/>
<path d="M196.184 142.693C199.174 142.73 202.164 142.558 205.149 142.625L205.184 144.235C204.894 146.653 204.997 149.133 205.027 151.563C202.114 151.468 199.172 151.58 196.259 151.615L196.184 142.693Z" fill="#6B4416"/>
<path d="M187.369 160.61C190.237 160.585 193.107 160.588 195.974 160.618C196.117 163.268 195.937 165.918 196.179 168.565L196.197 168.988C194.862 170.065 189.282 169.443 187.394 169.418C186.984 166.585 187.269 163.47 187.369 160.61Z" fill="#6B4416"/>
<path d="M178.272 151.823C181.104 151.783 184.152 151.523 186.954 151.905C187.332 152.613 187.244 153.453 187.264 154.245C187.254 155.57 187.187 156.933 187.264 158.253C187.274 158.993 187.262 159.573 187.034 160.29C184.722 161.103 181.177 160.278 178.652 160.533C178.562 160.543 178.472 160.555 178.382 160.565C178.254 157.658 178.274 154.733 178.272 151.823Z" fill="#6B4416"/>
<path d="M187.264 154.245C187.367 153.52 187.382 152.603 187.769 151.985C190.517 151.625 193.447 151.618 196.217 151.623L196.092 160.315C193.384 160.363 190.419 160.665 187.744 160.27C187.377 159.673 187.357 158.933 187.264 158.253C187.187 156.933 187.254 155.57 187.264 154.245Z" fill="#B2751A"/>
<path d="M160.677 142.623L169.422 142.565L169.452 151.543L169.459 160.355C167.859 160.36 166.254 160.315 164.669 160.575L160.499 160.598L160.527 151.583C157.909 151.57 155.292 151.615 152.677 151.718L152.099 151.52C151.197 150.4 151.719 146.02 151.704 144.468C151.732 143.923 151.784 143.378 151.832 142.833C153.089 142.16 158.739 142.625 160.484 142.655L160.677 142.623Z" fill="#B2751A"/>
<path d="M160.677 142.623L169.422 142.565L169.452 151.543C166.547 151.255 163.529 151.398 160.607 151.423C160.307 148.54 160.427 145.55 160.484 142.655L160.677 142.623Z" fill="#9E611D"/>
<path d="M178.464 205.073C181.379 205.115 184.292 205.135 187.207 205.138L187.227 205.973C187.234 208.67 187.117 211.435 187.377 214.12C190.249 214.115 193.272 213.928 196.124 214.188L196.172 214.318L196.209 223.193L187.277 223.148C187.259 220.143 187.267 217.138 187.299 214.133L178.457 214.095C178.332 211.255 177.964 207.865 178.464 205.073Z" fill="#6B4416"/>
<path d="M133.897 142.665C136.787 142.653 139.752 142.505 142.634 142.663L142.744 142.85C142.712 145.728 142.664 148.603 142.769 151.48C142.764 154.43 142.792 157.385 142.752 160.335C139.729 160.298 136.707 160.323 133.684 160.408V151.835L133.574 151.7C134.317 149.728 133.762 144.968 133.897 142.665Z" fill="#B2751A"/>
<path d="M133.897 142.665C136.787 142.653 139.752 142.505 142.634 142.663L142.744 142.85C142.712 145.728 142.664 148.603 142.769 151.48C139.724 151.29 136.717 151.56 133.684 151.835L133.574 151.7C134.317 149.728 133.762 144.968 133.897 142.665Z" fill="#9E611D"/>
<path d="M71.5164 196.22C74.3976 196.203 77.3196 196.08 80.1924 196.315C80.2129 199.25 80.2721 202.19 80.2331 205.125L89.1981 205.143C89.2036 207.085 89.7556 212.73 88.5801 214.103L88.3166 214.078C86.0199 213.388 82.6604 213.82 80.2269 213.815L80.2216 205.133C77.2431 205.22 74.2571 205.155 71.2778 205.13C71.1963 203.318 71.2556 201.485 71.2641 199.668C71.4179 198.533 71.4439 197.365 71.5164 196.22Z" fill="#B2751A"/>
<path d="M26.6719 151.99C29.6579 151.875 32.6584 151.678 35.6449 151.643C35.6926 154.573 35.7756 157.508 35.6806 160.44C38.6241 160.428 41.5684 160.388 44.5101 160.515C44.5204 162.478 44.9391 167.82 44.3249 169.428C41.4806 169.498 38.6111 169.403 35.7649 169.383C35.8084 166.485 35.9744 163.423 35.6639 160.545C32.6929 160.565 29.7181 160.553 26.7504 160.71L26.6719 151.99Z" fill="#B2751A"/>
<path d="M152.677 151.718C155.292 151.615 157.909 151.57 160.527 151.583L160.499 160.598L164.669 160.575C166.272 160.573 167.867 160.565 169.469 160.67L169.447 169.318C166.479 169.388 163.507 169.383 160.539 169.403C160.307 166.538 160.484 163.528 160.497 160.645C157.644 160.405 154.779 160.358 151.922 160.505C151.892 160.44 151.852 160.378 151.829 160.31C151.354 158.988 151.509 153.15 151.957 151.945L152.677 151.718Z" fill="#6B4416"/>
<path d="M178.214 170.285C178.334 169.945 178.464 169.75 178.669 169.458C181.279 168.863 184.694 169.323 187.394 169.418C187.139 172.343 187.757 175.54 187.294 178.378L178.514 178.315L178.329 177.433C178.089 175.093 178.222 172.643 178.214 170.285Z" fill="#B2751A"/>
<path d="M71.2191 142.665C74.0006 143.195 77.3869 142.598 80.2586 142.66C80.4766 144.675 80.9131 149.903 80.1991 151.673C77.3021 151.575 74.3809 151.683 71.4779 151.623C71.3549 150.035 71.3846 148.433 71.2594 146.84L71.2191 142.665Z" fill="#B2751A"/>
<path d="M115.912 214.26C118.882 213.993 121.924 214.095 124.907 214.078C124.939 217.103 125.004 220.13 124.912 223.155C121.872 223.063 118.807 223.15 115.762 223.163C116.354 220.465 115.961 217.033 115.912 214.26Z" fill="#B2751A"/>
<path d="M196.172 214.318C198.847 213.705 202.224 213.895 204.989 213.873C205.042 216.958 205.294 220.08 205.014 223.155C202.079 223.105 199.144 223.118 196.209 223.193L196.172 214.318Z" fill="#B2751A"/>
<path d="M44.4559 142.568C45.7651 142.145 51.7026 142.618 53.4711 142.685C53.4644 145.425 53.8911 149.08 53.3084 151.708C50.6081 151.4 47.7399 151.65 45.0074 151.505L44.5744 151.293C44.3379 148.405 44.4484 145.465 44.4559 142.568Z" fill="#B2751A"/>
<path d="M160.507 214.113C163.402 214.105 166.394 213.955 169.277 214.215L169.427 214.41L169.447 223.143C166.484 223.078 163.504 223.158 160.539 223.18C160.377 220.185 160.509 217.115 160.507 214.113Z" fill="#6B4416"/>
<path d="M107.285 214.02C110.041 214.178 112.969 213.85 115.682 214.248L115.912 214.26C115.961 217.033 116.354 220.465 115.762 223.163C112.856 223.19 109.949 223.18 107.043 223.13C107.023 221.18 106.551 215.48 107.285 214.02Z" fill="#6B4416"/>
<path d="M115.995 187.408C118.844 186.92 122.039 187.125 124.924 187.16C124.829 190.28 124.774 193.403 124.757 196.523C121.987 196.065 118.969 196.295 116.166 196.31L116.012 196.26C115.845 193.343 115.988 190.335 115.995 187.408Z" fill="#B2751A"/>
<path d="M213.949 205.305C216.809 204.815 220.099 205.105 223.007 205.093C223.064 208.013 223.407 211.198 223.027 214.075L214.264 214.07C214.299 213.373 214.152 212.663 214.057 211.973C214.034 209.75 213.999 207.528 213.949 205.305Z" fill="#B2751A"/>
<path d="M151.524 205.075L160.402 205.168C160.474 206.233 160.509 207.3 160.512 208.368C160.509 210.28 160.472 212.2 160.507 214.113C157.579 214.12 154.654 214.105 151.727 214.065C151.559 211.058 151.469 208.088 151.524 205.075Z" fill="#6B4416"/>
<path d="M133.797 142.605L133.897 142.665C133.762 144.968 134.317 149.728 133.574 151.7C130.839 151.455 127.937 151.655 125.177 151.563L125.039 151.513C124.657 148.575 124.837 145.575 124.944 142.625C127.897 142.658 130.847 142.65 133.797 142.605Z" fill="#B2751A"/>
<path d="M187.227 205.973L187.467 205.393C188.762 204.61 194.297 205.08 196.042 205.108C196.487 207.793 196.367 211.465 196.124 214.188C193.272 213.928 190.249 214.115 187.377 214.12C187.117 211.435 187.234 208.67 187.227 205.973Z" fill="#B2751A"/>
<path d="M134.059 214.03C136.854 214.138 139.797 213.885 142.562 214.218L142.682 214.298L142.697 223.148C139.784 223.198 136.874 223.213 133.964 223.188C133.554 221.323 133.619 215.948 134.059 214.03Z" fill="#6B4416"/>
<path d="M80.2084 152.073C82.7726 151.303 86.4654 151.583 89.1796 151.523C89.2401 154.068 89.8574 158.235 89.0081 160.595C86.0811 160.56 83.1536 160.575 80.2269 160.64C80.1996 157.783 80.1934 154.928 80.2084 152.073Z" fill="#B2751A"/>
<path d="M107.48 187.235C109.107 187.318 110.711 187.36 112.34 187.323L115.995 187.408C115.988 190.335 115.845 193.343 116.012 196.26C113.139 196.555 110.033 196.318 107.154 196.128C107.017 193.345 106.698 190.29 107.054 187.535L107.48 187.235Z" fill="#6B4416"/>
<path d="M62.3959 160.845L62.4889 160.69C63.4669 159.965 69.8094 160.33 71.2994 160.458C71.1106 163.425 71.3651 166.41 71.1746 169.368C68.2491 169.463 65.3601 169.53 62.4359 169.345L62.3959 160.845Z" fill="#B2751A"/>
<path d="M45.0074 151.505C47.7399 151.65 50.6081 151.4 53.3084 151.708L53.4481 151.908C53.4749 154.698 53.4729 157.488 53.4426 160.278L53.2254 160.64C50.4346 160.338 47.2684 160.263 44.4769 160.553C44.4639 158.768 43.9011 152.68 45.0074 151.505Z" fill="#6B4416"/>
<path d="M53.4169 178.453C56.2796 178.128 59.3939 178.353 62.2814 178.358C62.3831 180.165 62.8486 186.058 62.0051 187.323C59.1499 187.273 56.2961 187.395 53.4411 187.303C53.6224 184.388 53.4854 181.375 53.4169 178.453Z" fill="#B2751A"/>
<path d="M133.732 206.425C133.819 205.995 133.904 205.74 134.154 205.38C136.637 204.638 139.947 205.098 142.539 205.205C142.982 207.573 142.904 211.803 142.562 214.218C139.797 213.885 136.854 214.138 134.059 214.03L133.894 213.843C133.539 211.433 133.719 208.86 133.732 206.425Z" fill="#B2751A"/>
<path d="M204.909 169.503L205.154 169.64C205.164 172.52 205.124 175.41 205.214 178.285L196.242 178.34C195.984 175.623 195.754 172.003 196.284 169.348C199.124 169.688 202.052 169.518 204.909 169.503Z" fill="#6B4416"/>
<path d="M196.197 168.988L196.284 169.348C195.754 172.003 195.984 175.623 196.242 178.34C193.527 178.333 190.272 177.993 187.622 178.43C187.502 179.01 187.374 179.59 187.237 180.17L187.294 178.378C187.757 175.54 187.139 172.343 187.394 169.418C189.282 169.443 194.862 170.065 196.197 168.988Z" fill="#9E611D"/>
<path d="M115.956 142.823C118.952 142.708 121.947 142.558 124.944 142.625C124.837 145.575 124.657 148.575 125.039 151.513C122.054 151.768 118.944 151.62 115.945 151.623C115.978 148.69 115.982 145.758 115.956 142.823Z" fill="#6B4416"/>
<path d="M106.787 178.35C106.909 178.78 107.022 179.168 107.076 179.61C106.963 181.93 106.631 184.735 107.148 186.998C104.311 187.655 100.974 187.325 98.0996 187.153C97.9424 184.325 97.8901 181.178 98.2376 178.37L106.787 178.35Z" fill="#6B4416"/>
<path d="M97.5836 169.263L97.8976 169.52C98.3541 172.298 97.9568 175.49 98.0723 178.338L89.1968 178.39L89.2218 169.33C91.9976 169.365 94.8143 169.49 97.5836 169.263Z" fill="#6B4416"/>
<path d="M169.427 214.41C172.402 214.203 175.384 214.103 178.369 214.11C178.324 217.093 178.107 220.195 178.287 223.168C175.347 223.09 172.389 223.148 169.447 223.143L169.427 214.41Z" fill="#B2751A"/>
<path d="M160.777 205.198C163.657 205.148 166.542 205.128 169.424 205.135C169.454 208.173 169.457 211.183 169.277 214.215C166.394 213.955 163.402 214.105 160.507 214.113C160.472 212.2 160.509 210.28 160.512 208.368L160.777 205.198Z" fill="#B2751A"/>
<path d="M187.237 180.17C187.374 179.59 187.502 179.01 187.622 178.43C190.272 177.993 193.527 178.333 196.242 178.34C196.252 180.11 196.634 186.305 195.734 187.343L194.512 187.323C192.594 186.975 190.552 187.393 188.614 187.15C187.852 187.055 187.794 187.065 187.334 186.455C187.079 184.41 187.229 182.233 187.237 180.17Z" fill="#B2751A"/>
<path d="M178.527 196.193C181.427 196.078 184.404 195.81 187.302 196.023C187.297 199.06 187.264 202.1 187.207 205.138C184.292 205.135 181.379 205.115 178.464 205.073L178.527 196.193Z" fill="#B2751A"/>
<path d="M142.682 214.298C145.387 213.77 148.767 214.11 151.537 214.13C151.527 216.995 151.804 220.338 151.304 223.135C148.442 223.058 145.559 223.133 142.697 223.148L142.682 214.298Z" fill="#B2751A"/>
<path d="M178.514 178.315L187.294 178.378L187.237 180.17C187.229 182.233 187.079 184.41 187.334 186.455C187.284 186.695 187.164 186.883 187.052 187.1C184.564 187.798 181.052 187.31 178.442 187.21C178.379 184.275 178.267 181.243 178.514 178.315Z" fill="#6B4416"/>
<path d="M44.4511 169.515C47.3826 169.173 50.4929 169.545 53.4644 169.405C53.3929 171.923 53.7709 176.118 53.1324 178.395L44.6794 178.328L44.5591 178.245C44.3116 175.388 44.5044 172.393 44.4511 169.515Z" fill="#B2751A"/>
<path d="M216.857 187.313L222.939 187.375L222.987 188.805C222.999 191.313 222.999 193.823 222.984 196.333L214.192 196.17C214.102 193.41 213.772 190.255 214.287 187.56C215.002 187.21 216.062 187.323 216.857 187.313Z" fill="#6B4416"/>
<path d="M35.7054 142.668C38.6039 142.648 41.5664 142.745 44.4559 142.568C44.4484 145.465 44.3379 148.405 44.5744 151.293C41.8554 151.958 38.4867 151.623 35.6884 151.623C35.6004 148.633 35.6356 145.66 35.7054 142.668Z" fill="#6B4416"/>
<path d="M205.214 178.285L214.004 178.393C213.959 180.73 213.917 183.113 214.017 185.45L214.074 186.688L213.802 187.175C210.997 187.655 207.999 187.088 205.144 187.335L205.214 178.285Z" fill="#6B4416"/>
<path d="M53.4619 160.65C55.3279 160.598 60.9121 160.04 62.3959 160.845L62.4359 169.345C59.4474 169.388 56.4546 169.358 53.4656 169.358L53.4619 160.65Z" fill="#6B4416"/>
<path d="M97.7901 142.755C100.825 142.603 104.005 142.393 107.034 142.673C106.779 145.593 107.379 148.775 106.91 151.62L103.771 151.643C101.978 151.463 100.078 151.573 98.2721 151.568C98.2174 148.958 98.4436 146.078 98.0119 143.51L97.7901 142.755Z" fill="#B2751A"/>
<path d="M107.076 179.61C107.176 179.235 107.213 178.598 107.576 178.415C109.364 177.513 113.806 178.355 115.948 178.3C115.678 181.233 115.695 184.18 115.732 187.123C114.614 187.155 113.439 187.118 112.34 187.323C110.711 187.36 109.107 187.318 107.48 187.235L107.148 186.998C106.631 184.735 106.963 181.93 107.076 179.61Z" fill="#B2751A"/>
<path d="M194.512 187.323L195.734 187.343L196.072 187.495C196.282 190.448 196.097 193.393 196.204 196.345C193.242 196.365 190.294 196.278 187.334 196.16C187.344 193.215 187.392 190.27 187.472 187.325C189.819 187.393 192.167 187.39 194.512 187.323Z" fill="#6B4416"/>
<path d="M142.744 142.85C145.244 142.693 148.849 141.973 151.234 142.903C151.589 143.46 151.514 143.763 151.534 144.4C151.477 146.84 151.457 149.28 151.474 151.718C148.634 151.658 145.577 151.83 142.769 151.48C142.664 148.603 142.712 145.728 142.744 142.85Z" fill="#6B4416"/>
<path d="M71.4779 151.623C74.3809 151.683 77.3021 151.575 80.1991 151.673L80.2084 152.073C80.1934 154.928 80.1996 157.783 80.2269 160.64C77.2556 160.308 74.2596 160.78 71.2994 160.458C71.2921 157.513 71.3516 154.565 71.4779 151.623Z" fill="#6B4416"/>
<path d="M106.946 206.51L107.31 205.348C108.511 204.818 114.109 205.223 115.809 205.228C115.875 208.078 116.256 211.453 115.682 214.248C112.969 213.85 110.041 214.178 107.285 214.02L107.122 213.805C106.683 211.533 106.957 208.83 106.946 206.51Z" fill="#B2751A"/>
<path d="M80.2268 160.64C83.1536 160.575 86.0811 160.56 89.0081 160.595C89.0473 162.95 88.8786 165.548 89.1836 167.868L89.2218 169.33C86.2416 169.435 83.2513 169.615 80.2736 169.393C80.2006 166.478 80.2366 163.555 80.2268 160.64Z" fill="#6B4416"/>
<path d="M124.969 205.105C127.874 205.118 130.787 205.085 133.689 205.153L133.732 206.425C133.719 208.86 133.539 211.433 133.894 213.843C131.349 214.518 127.639 214.065 124.964 214.033C124.922 211.055 124.869 208.083 124.969 205.105Z" fill="#6B4416"/>
<path d="M89.1849 142.65C91.9904 142.63 95.0064 142.408 97.7901 142.755L98.0119 143.51C97.8851 146.24 97.9964 149.005 98.0184 151.74C95.1071 151.545 92.1836 151.608 89.2676 151.62L89.1849 142.65Z" fill="#6B4416"/>
<path d="M98.2111 205.09C101.14 205.13 104.069 205.138 106.997 205.115L106.946 206.51C106.957 208.83 106.683 211.533 107.122 213.805C104.31 214.365 101.038 213.923 98.1568 214.018C98.1298 211.083 97.9303 208.01 98.2111 205.09Z" fill="#6B4416"/>
<path d="M62.4476 142.598C65.3291 142.628 68.3571 142.438 71.2191 142.665L71.2594 146.84C71.1874 148.345 71.2184 149.87 71.2056 151.378C68.2889 151.498 65.3704 151.565 62.4511 151.583C62.3786 148.59 62.3776 145.593 62.4476 142.598Z" fill="#6B4416"/>
<path d="M89.2696 214.335C92.1714 214.178 95.0666 214.145 97.9719 214.123C97.9991 217.138 98.0366 220.15 97.9264 223.165C95.0206 223.088 92.1001 223.13 89.1929 223.115L89.1876 221.173C89.3011 218.89 89.2846 216.618 89.2696 214.335Z" fill="#B2751A"/>
<path d="M106.91 151.62L106.989 152.48L107.006 158.228C107.026 159.01 107.142 159.795 106.758 160.503C104.016 160.883 101.17 160.405 98.4014 160.57L98.1516 160.585C98.0811 157.665 98.1549 154.73 98.1719 151.808C100.044 151.83 101.91 151.888 103.771 151.643L106.91 151.62Z" fill="#6B4416"/>
<path d="M205.264 205.098C208.067 205.108 211.002 204.948 213.787 205.19L213.949 205.305C213.999 207.528 214.034 209.75 214.057 211.973C214.057 212.678 214.017 213.263 213.874 213.95C211.642 214.445 207.592 213.903 205.157 213.89C205.149 210.96 205.097 208.023 205.264 205.098Z" fill="#6B4416"/>
<path d="M196.072 187.495C199.042 187.275 202.044 187.338 205.019 187.318C205.014 190.225 204.907 193.17 205.127 196.07C202.902 196.188 200.522 195.953 198.342 196.323L196.204 196.345C196.097 193.393 196.282 190.448 196.072 187.495Z" fill="#B2751A"/>
<path d="M62.4014 188.908L62.6466 187.518C65.2779 187.18 68.6336 187.123 71.2626 187.493C71.3241 190.353 71.4159 193.215 71.3429 196.075C69.4569 196.108 67.5166 196.05 65.6491 196.323L63.7499 196.243C63.3484 196.138 62.8709 196.19 62.4549 196.193C62.3824 193.77 62.4179 191.33 62.4014 188.908Z" fill="#B2751A"/>
<path d="M98.2741 169.375L107.022 169.38C106.991 171.395 107.459 176.76 106.787 178.35L98.2376 178.37L98.2741 169.375Z" fill="#B2751A"/>
<path d="M62.4359 169.345C65.3601 169.53 68.2491 169.463 71.1746 169.368C71.2299 172.358 71.1681 175.355 71.2489 178.343C68.3106 178.318 65.3701 178.27 62.4319 178.283L62.4359 169.345Z" fill="#6B4416"/>
<path d="M116.166 196.31C118.969 196.295 121.987 196.065 124.757 196.523L124.904 196.625L124.939 198.108C124.632 200.385 124.737 202.76 124.722 205.058C121.799 205.2 118.837 205.128 115.909 205.14C115.919 202.51 115.493 198.793 116.166 196.31Z" fill="#6B4416"/>
<path d="M205.299 196.26C208.204 196.165 211.134 196.12 214.039 196.175C213.962 198.99 214.319 202.453 213.787 205.19C211.002 204.948 208.067 205.108 205.264 205.098C205.244 202.155 205.169 199.2 205.299 196.26Z" fill="#B2751A"/>
<path d="M115.967 169.363L117.692 169.395C120.019 169.735 122.482 169.573 124.832 169.56C124.739 172.463 124.754 175.345 124.814 178.248C121.864 178.433 118.889 178.343 115.934 178.33C116.029 175.35 115.964 172.345 115.967 169.363Z" fill="#6B4416"/>
<path d="M116.098 160.645C118.999 160.44 121.877 160.4 124.784 160.39C124.964 163.278 124.917 166.405 124.749 169.298C122.427 169.313 119.999 169.178 117.692 169.395L115.967 169.363L115.932 163.368L116.098 160.645Z" fill="#B2751A"/>
<path d="M169.447 169.318C172.379 169.578 175.307 169.538 178.244 169.353L178.214 170.285C178.222 172.643 178.089 175.093 178.329 177.433L178.157 178.085C176.692 178.86 171.262 178.21 169.449 178.15L169.447 169.318Z" fill="#6B4416"/>
<path d="M125.177 151.563C127.937 151.655 130.839 151.455 133.574 151.7L133.684 151.835V160.408C130.929 160.478 127.889 160.703 125.164 160.29C124.779 159.635 124.849 158.998 124.814 158.255C125.187 156.07 124.542 153.713 125.177 151.563Z" fill="#6B4416"/>
<path d="M151.809 196.383C154.634 196.223 157.439 196.078 160.269 196.105C160.217 199.078 160.047 202.215 160.402 205.168L151.524 205.075C151.509 203.235 151.527 201.395 151.572 199.558C151.919 198.595 151.802 197.4 151.809 196.383Z" fill="#B2751A"/>
<path d="M124.904 196.625C127.342 196.198 131.247 195.873 133.682 196.31C133.779 199.238 133.897 202.23 133.689 205.153C130.787 205.085 127.874 205.118 124.969 205.105C125.004 202.77 125.049 200.44 124.939 198.108L124.904 196.625Z" fill="#B2751A"/>
<path d="M89.2684 160.72C92.1939 160.585 95.1472 160.393 98.0744 160.378C98.0334 162.295 98.5059 167.915 97.5836 169.263C94.8144 169.49 91.9976 169.365 89.2219 169.33L89.1837 167.868C89.3504 165.49 89.2884 163.103 89.2684 160.72Z" fill="#B2751A"/>
<path d="M142.709 196.318L151.627 196.395C151.552 197.458 151.534 198.493 151.572 199.558C151.527 201.395 151.509 203.235 151.524 205.075C148.597 205.133 145.667 205.11 142.739 205.19L142.709 196.318Z" fill="#6B4416"/>
<path d="M53.4481 151.908C56.4111 151.638 59.3924 151.593 62.3664 151.573C62.3466 154.47 62.1561 157.493 62.3699 160.373C59.4459 160.335 56.3389 160.555 53.4426 160.278C53.4729 157.488 53.4749 154.698 53.4481 151.908Z" fill="#B2751A"/>
<path d="M198.342 196.323C200.569 196.36 202.797 196.383 205.024 196.388C204.999 199.293 204.924 202.205 205.064 205.108C202.134 205.125 199.102 205.29 196.184 205.05C196.259 202.15 196.264 199.248 196.204 196.345L198.342 196.323Z" fill="#6B4416"/>
<path d="M110.654 160.568C112.36 160.608 114.067 160.613 115.773 160.583C115.815 161.508 115.824 162.448 115.932 163.368L115.967 169.363C112.993 169.28 110.016 169.278 107.042 169.35C107.037 167.175 106.675 162.573 107.433 160.733L108.174 160.518C108.995 160.538 109.834 160.598 110.654 160.568Z" fill="#6B4416"/>
<path d="M98.2184 196.383C101.129 196.333 104.043 196.193 106.952 196.16C106.841 197.933 107.281 204.093 106.997 205.115C104.069 205.138 101.14 205.13 98.2111 205.09C98.2361 202.188 98.2386 199.285 98.2184 196.383Z" fill="#B2751A"/>
<path d="M106.989 152.48C107.297 151.995 107.298 151.845 107.888 151.73C110.317 151.263 113.422 151.595 115.927 151.623C115.582 154.483 115.72 157.463 115.76 160.34C114.068 160.385 112.333 160.358 110.654 160.568C109.834 160.598 108.995 160.538 108.174 160.518L107.603 160.325C107.077 159.803 107.1 158.93 107.006 158.228L106.989 152.48Z" fill="#B2751A"/>
<path d="M160.749 178.32C163.629 178.253 166.517 178.17 169.397 178.22C169.427 180.573 169.919 185.228 169.214 187.343C166.472 187.363 163.739 187.38 160.999 187.263L160.664 187.098C160.387 185.545 160.492 183.943 160.512 182.37C160.644 181.015 160.714 179.68 160.749 178.32Z" fill="#B2751A"/>
<path d="M142.714 187.375C145.644 186.998 148.777 187.12 151.727 187.14C151.682 190.143 151.474 193.248 151.659 196.238C148.692 196.17 145.724 196.12 142.757 196.083C142.757 194.28 142.864 192.398 142.684 190.608L142.714 187.375Z" fill="#B2751A"/>
<path d="M80.1566 178.478C83.0081 178.045 86.2739 178.33 89.1736 178.348C89.0666 181.343 89.0081 184.363 89.0956 187.358C86.4521 187.373 83.8099 187.415 81.1701 187.25C80.9851 187.17 80.5056 187.135 80.2991 187.103C80.1634 184.238 80.1839 181.348 80.1566 178.478Z" fill="#B2751A"/>
<path d="M169.502 187.275C172.479 187.215 175.472 187.085 178.447 187.193L178.472 196.073C176.444 196.1 174.349 196.023 172.339 196.315L171.822 196.313C171.024 196.113 170.207 196.11 169.389 196.073L169.427 195.15C169.599 192.53 169.527 189.898 169.502 187.275Z" fill="#B2751A"/>
<path d="M133.724 160.608C136.019 160.6 140.747 160.02 142.742 160.813C142.674 163.61 142.519 166.433 142.719 169.225C139.964 169.718 136.937 169.493 134.139 169.455C134.102 169.435 134.054 169.425 134.027 169.395C133.297 168.545 133.707 162.063 133.724 160.608Z" fill="#6B4416"/>
<path d="M71.6696 178.325C74.3916 178.328 77.2092 178.178 79.9162 178.455L80.1566 178.478C80.1839 181.348 80.1634 184.238 80.2991 187.103C77.6444 187.788 74.1464 187.23 71.3784 187.38C71.2564 185.698 70.9611 179.648 71.6696 178.325Z" fill="#6B4416"/>
<path d="M142.742 160.813C144.994 159.858 149.164 160.248 151.587 160.53C151.317 163.478 151.729 166.455 151.477 169.378C148.582 169.46 145.684 169.46 142.789 169.375L142.719 169.225C142.519 166.433 142.674 163.61 142.742 160.813Z" fill="#B2751A"/>
<path d="M133.484 178.343C133.652 178.753 133.759 179.033 133.817 179.478C133.677 181.95 133.722 184.423 133.742 186.898L133.642 187.113C130.827 187.548 127.784 187.285 124.944 187.183C125.004 184.673 124.227 180.61 124.962 178.365L133.484 178.343Z" fill="#6B4416"/>
<path d="M159.537 178.32L159.807 178.315L160.312 178.545C160.674 179.728 160.519 181.138 160.512 182.37C160.492 183.943 160.387 185.545 160.664 187.098C158.087 187.78 154.404 187.215 151.704 187.14C151.589 184.215 151.392 181.258 151.612 178.335C154.249 178.355 156.899 178.423 159.537 178.32Z" fill="#6B4416"/>
<path d="M133.779 187.318L142.714 187.375L142.684 190.608C142.504 192.47 142.529 194.325 142.542 196.195C139.597 196.29 136.659 196.223 133.714 196.165C133.824 193.228 133.759 190.26 133.779 187.318Z" fill="#6B4416"/>
<path d="M89.2751 187.193C92.2379 187.155 95.2011 187.173 98.1634 187.243C98.0921 190.248 98.0016 193.25 97.8921 196.253C95.9914 196.11 93.9709 195.95 92.0864 196.318L91.9296 196.305C91.0449 196.253 90.2504 196.203 89.3999 195.943C88.7964 193.368 89.2439 189.88 89.2751 187.193Z" fill="#B2751A"/>
<path d="M160.999 187.263C163.739 187.38 166.472 187.363 169.214 187.343C169.319 189.788 169.014 192.775 169.427 195.15L169.389 196.073C166.502 196.45 163.334 196.21 160.424 196.138C160.432 193.655 160.359 191.138 160.514 188.66C160.559 187.928 160.449 187.743 160.999 187.263Z" fill="#6B4416"/>
<path d="M133.817 179.478L134.082 178.673C136.124 177.675 140.384 178.408 142.732 178.33C142.672 181.25 142.424 184.343 142.669 187.248C139.884 187.103 136.382 187.65 133.742 186.898C133.722 184.423 133.677 181.95 133.817 179.478Z" fill="#B2751A"/>
<path d="M151.477 169.378C151.474 172.31 151.389 175.278 151.517 178.208C148.617 178.433 145.632 178.325 142.719 178.338C142.754 175.348 142.667 172.365 142.789 169.375C145.684 169.46 148.582 169.46 151.477 169.378Z" fill="#6B4416"/>
<path d="M171.822 196.313L172.339 196.315C174.304 196.433 176.319 196.343 178.289 196.343L178.239 205.058C175.324 205.158 172.389 205.105 169.472 205.118C169.417 202.38 169.114 199.253 169.539 196.558C170.227 196.233 171.064 196.323 171.822 196.313Z" fill="#6B4416"/>
<path d="M71.4288 169.41C74.3221 169.828 77.3034 169.413 80.2201 169.495C80.2106 172.155 80.7281 176.023 79.9161 178.455C77.2091 178.178 74.3916 178.328 71.6696 178.325C70.8626 175.685 71.5668 172.19 71.4288 169.41Z" fill="#B2751A"/>
<path d="M125.039 169.655C127.934 169.58 130.812 169.283 133.709 169.488C133.714 171.295 134.162 177.02 133.484 178.343L124.962 178.365C125.284 175.575 125.034 172.475 125.039 169.655Z" fill="#B2751A"/>
<path d="M91.9296 196.305L92.0864 196.318C94.0349 196.423 96.0151 196.373 97.9681 196.395C97.9804 199.295 97.9774 202.195 97.9591 205.095L89.2036 205.11C89.1789 202.305 89.0099 199.418 89.2864 196.628C90.0384 196.238 91.0854 196.34 91.9296 196.305Z" fill="#6B4416"/>
<path d="M151.802 169.333C154.534 169.483 157.839 168.863 160.444 169.578C160.254 171.218 160.989 177.365 159.954 178.223C159.909 178.26 159.857 178.285 159.807 178.315L159.537 178.32C157.432 177.753 154.012 178.135 151.757 178.093C151.634 175.155 151.677 172.268 151.802 169.333Z" fill="#B2751A"/>
<path d="M81.1701 187.25C83.8099 187.415 86.4521 187.373 89.0956 187.358C88.9251 190.283 89.0041 193.228 89.0154 196.158C86.2141 196.165 83.0296 196.5 80.2749 196.178C80.4801 193.425 79.9586 190.13 80.5589 187.473L81.1701 187.25Z" fill="#6B4416"/>
<path d="M44.8146 0.0950021L160.962 0.114243C178.542 0.117493 196.172 -0.157246 213.747 0.134004C213.752 2.89175 213.529 5.94775 214.147 8.6445L214.249 8.8515C216.984 9.05325 219.904 9.218 222.637 9.026C222.704 11.785 222.489 14.8998 222.952 17.5975L223.099 17.8423C225.909 17.9415 228.712 17.907 231.524 17.8707C231.769 21.6987 231.022 32.6967 231.954 35.431C231.959 37.928 232.087 40.485 231.932 42.9747C231.322 46.2382 231.669 50.0745 231.667 53.4075C228.799 53.4043 225.932 53.442 223.067 53.521C223.057 51.315 223.224 48.9482 222.937 46.766L222.862 45.2152C222.324 44.6572 221.672 44.7497 220.922 44.652C218.592 44.7372 216.232 44.6452 213.899 44.6362C211.154 44.2837 208.242 44.5543 205.464 44.466C205.082 38.6118 205.412 32.6863 205.224 26.817L205.047 26.6893C201.144 26.9998 195.854 26.6262 191.762 26.622L162.064 26.6133L92.8861 26.6102C79.7996 26.5475 66.7126 26.5747 53.6261 26.6915L53.5131 26.7965C53.0969 32.6992 53.7229 38.655 53.3226 44.5677C50.7061 44.3032 47.2604 44.1097 44.6966 44.6447L44.7404 44.834C41.7339 44.6057 38.7001 44.675 35.6864 44.667C34.9939 42.0947 35.5319 38.2892 35.4751 35.5742C32.7536 35.5917 29.4286 35.9415 26.7811 35.4325C27.1776 29.6322 26.9584 23.755 27.0016 17.9405C28.7664 17.9527 33.7646 18.5932 35.1161 17.3822C36.4226 16.2112 35.9361 10.9227 35.9464 9.099C38.7044 9.083 41.5419 9.21801 44.2739 8.81101L44.3406 8.65074C45.0226 5.83299 44.5671 2.948 44.8146 0.0950021Z" fill="#B2751A"/>
<path d="M44.8146 0.0950021L160.962 0.114243C178.542 0.117493 196.172 -0.157246 213.747 0.134004C213.752 2.89175 213.529 5.94775 214.147 8.6445L44.3406 8.65074C45.0226 5.83299 44.5671 2.948 44.8146 0.0950021Z" fill="black"/>
<path d="M53.5394 17.8792C57.0996 17.783 60.6696 17.8397 64.2314 17.8492L151.659 17.8498C166.492 17.85 181.352 17.658 196.179 17.8622L204.984 17.8475C204.984 20.7833 204.899 23.7583 205.047 26.6893C201.144 26.9998 195.854 26.6262 191.762 26.622L162.064 26.6133L92.8861 26.6103C79.7996 26.5475 66.7126 26.5748 53.6261 26.6915C53.2439 23.8763 53.5231 20.728 53.5394 17.8792Z" fill="black"/>
<path d="M62.2336 8.91249L196.132 8.88475C196.022 11.3478 195.719 15.4885 196.179 17.8622C181.352 17.658 166.492 17.85 151.659 17.8497L64.2313 17.8492C63.5983 17.7482 63.0001 17.781 62.5103 17.3532C62.3463 14.5425 62.2541 11.728 62.2336 8.91249Z" fill="#D39238"/>
<path d="M44.4923 17.6568C47.4806 17.9585 50.5373 17.8587 53.5393 17.8792C53.5231 20.728 53.2438 23.8762 53.6261 26.6915L53.5131 26.7965C53.0968 32.6992 53.7228 38.655 53.3226 44.5677C50.7061 44.3032 47.2603 44.1097 44.6966 44.6447L44.7403 44.834C41.7338 44.6057 38.7001 44.675 35.6863 44.667C34.9938 42.0947 35.5318 38.2892 35.4751 35.5742L35.4311 26.5905C38.4621 26.5805 41.4928 26.6225 44.5221 26.7162C44.4726 23.6982 44.4968 20.6758 44.4923 17.6568Z" fill="#D39238"/>
<path d="M44.6539 26.8143L53.5131 26.7965C53.0969 32.6992 53.7229 38.655 53.3226 44.5677C50.7061 44.3032 47.2604 44.1097 44.6966 44.6447C44.1144 42.9235 44.5174 29.5188 44.6539 26.8143Z" fill="black"/>
<path d="M213.952 26.8537C216.842 26.3845 219.999 26.6765 222.912 26.9152C222.922 30.0062 223.467 42.5902 222.739 44.417C222.124 44.5315 221.549 44.6152 220.922 44.652C218.592 44.7372 216.232 44.6452 213.899 44.6362C211.154 44.2837 208.242 44.5542 205.464 44.466C205.082 38.6117 205.412 32.6862 205.224 26.817C206.584 26.827 207.979 26.8942 209.334 26.8155L213.952 26.8537Z" fill="#D39238"/>
<path d="M209.334 26.8155L213.952 26.8537C213.942 32.7017 214.277 38.8167 213.899 44.6362C211.154 44.2837 208.242 44.5543 205.464 44.466C205.082 38.6118 205.412 32.6863 205.224 26.817C206.584 26.827 207.979 26.8942 209.334 26.8155Z" fill="black"/>
<path d="M35.9464 9.099C38.7044 9.083 41.5419 9.218 44.2739 8.811C44.6774 11.6463 44.4286 14.7785 44.4589 17.6462L35.4799 17.6322L35.4311 26.5905L35.4751 35.5742C32.7536 35.5917 29.4286 35.9415 26.7811 35.4325C27.1776 29.6322 26.9584 23.755 27.0016 17.9405C28.7664 17.9527 33.7646 18.5932 35.1161 17.3822C36.4226 16.2112 35.9361 10.9227 35.9464 9.099Z" fill="black"/>
<path d="M223.099 17.8423C225.909 17.9415 228.712 17.907 231.524 17.8707C231.769 21.6987 231.022 32.6967 231.954 35.431C229.177 35.8675 225.989 35.5942 223.164 35.6055C223.219 29.6852 223.097 23.763 223.099 17.8423Z" fill="black"/>
<path d="M205.234 17.8617C208.229 17.8862 211.222 17.952 214.209 17.6957C213.894 20.6182 213.917 23.6475 214.004 26.584C212.502 26.6052 210.792 26.481 209.334 26.8155C207.979 26.8942 206.584 26.827 205.224 26.817C205.289 23.8365 205.104 20.8352 205.234 17.8617Z" fill="#D39238"/>
<path d="M214.249 8.8515C216.984 9.05325 219.904 9.218 222.637 9.026C222.704 11.785 222.489 14.8998 222.952 17.5975C220.047 17.6075 217.084 17.5 214.189 17.7842C214.179 14.8065 214.199 11.8288 214.249 8.8515Z" fill="black"/>
<path d="M231.954 35.431C234.807 36.0475 237.839 35.8617 240.737 35.6895L240.739 72.9007C240.734 76.869 240.187 85.7342 240.944 89.2307C239.062 88.9795 233.099 89.6555 231.967 88.7177C231.797 88.8515 231.767 88.8938 231.532 88.9745C229.992 89.5055 224.712 89.484 223.129 88.9075L222.959 88.1052L222.832 88.1097L222.674 88.843C221.002 89.591 215.887 89.222 213.899 89.065C214.297 86.0583 214.117 82.8428 214.124 79.8045L214.139 63.6487C214.137 58.9005 214.649 48.798 213.899 44.6362C216.232 44.6452 218.592 44.7372 220.922 44.652C221.672 44.7497 222.324 44.6572 222.862 45.2152L222.937 46.766C223.224 48.9482 223.057 51.315 223.067 53.521C225.932 53.442 228.799 53.4043 231.667 53.4075C231.669 50.0745 231.322 46.2382 231.932 42.9747C232.087 40.485 231.959 37.928 231.954 35.431Z" fill="black"/>
<path d="M213.899 44.6362C216.232 44.6452 218.592 44.7372 220.922 44.652C221.672 44.7497 222.324 44.6572 222.862 45.2152L222.937 46.766C222.472 52.3515 222.784 58.1215 222.779 63.7367C222.774 71.8457 222.569 80.0062 222.832 88.1097L222.674 88.843C221.002 89.591 215.887 89.222 213.899 89.065C214.297 86.0583 214.117 82.8428 214.124 79.8045L214.139 63.6487C214.137 58.9005 214.649 48.798 213.899 44.6362Z" fill="black"/>
<path d="M231.667 53.4075C231.669 50.0745 231.322 46.2382 231.932 42.9747C231.987 52.066 231.994 61.1578 231.957 70.2493C231.959 75.8778 232.217 81.6348 231.932 87.2493L231.967 88.7177C231.797 88.8515 231.767 88.8938 231.532 88.9745C229.992 89.5055 224.712 89.484 223.129 88.9075L222.959 88.1052L222.832 88.1097C222.569 80.0062 222.774 71.8457 222.779 63.7367C222.784 58.1215 222.472 52.3515 222.937 46.766C223.224 48.9482 223.057 51.315 223.067 53.521C225.932 53.442 228.799 53.4043 231.667 53.4075Z" fill="#9E611D"/>
<path d="M223.052 80.4227C225.922 80.3177 228.767 80.3585 231.634 80.4442C231.669 82.679 231.547 85.0462 231.932 87.2492L231.967 88.7177C231.797 88.8515 231.767 88.8937 231.532 88.9745C229.992 89.5055 224.712 89.484 223.129 88.9075L222.959 88.1052C223.259 85.6232 223.052 82.9302 223.052 80.4227Z" fill="#B2751A"/>
</svg>
